<svg xmlns="http://www.w3.org/2000/svg" viewBox="0 0 773.55 172.84"><defs><style>.cls-1{fill:#0c4d8b;}.cls-2{fill:#67c0ec;}.cls-3{fill:#62b2e3;}.cls-4{fill:#1e4e8c;}.cls-5{fill:#64cbe5;}.cls-6{fill:#fff;stroke:#231f20;stroke-miterlimit:10;stroke-width:5px;}</style></defs><g id="Layer_2" data-name="Layer 2"><g id="ZZ5"><g id="ZS5goup"><g id="WAVE"><path class="cls-1" d="M481.3,47.54C466.53,27.17,455.13,19.34,451,16.79c-7-4.3-54.35-37.95-98.23,4.19-31.81,30.55-10,82.07-11.58,88.55,0,0-.69-30,5.39-48.62,17.82-54.65,65.74-49.48,90.29-42.57C462.11,25.44,481.3,47.54,481.3,47.54Z"/><path class="cls-2" d="M588.88,136.92c-8.63-4.33-46.51-.63-62.3,1.4-9.92,1.27-40.26,6.16-48.81,7.24-7.14.9-38.44,7.77-66.48-6.34-29.46-14.83-29.13-48.16-19.23-67.82,11.48-22.81,30-33,57.76-26.22,27,6.59,27.55,9.38,27.55,9.38-29.59-30.35-56.89-30.91-73.73-29.67-6.69.5-17.07,3.43-22.79,7-7.28,4.47-13.32,8.5-19.38,19.93-10.44,19.72-12,33.56-11.53,47.56.43,13.37,4.36,42.51,25.68,58.17,26.63,19.56,66.66,16.22,81.13,12.5,46.94-12.06,65.94-17.34,88.7-22.5,14.15-3.2,45.8-9.37,43.43-10.58"/><path class="cls-3" d="M549.86,169.05c16.69-18.15,40-23.23,64.39-21.11,22.46,1.94,26.06,3.6,63.79,17.67,30.69,11.44-27.06,4.12-50.32,1C578.5,160.14,542.3,178.2,549.86,169.05Z"/><path class="cls-4" d="M477.91,128S513.3,104.8,546,97.42c35.54-8,71.85,3.62,113.4,22.19,19.25,8.6,34.54,14.77,50.92,15.17s37.94-4.24,45.12-6.58c12-3.92,3.59,7.08-10,13.77-11.19,5.52-36.19,12.53-48.72,11.58-2.4-.18-14.77,2-37.53-5.19s-47.72-17.77-55.11-19.77-25.16-7.78-36.93-9-24.16-3-44.93-.2S477.91,128,477.91,128Z"/><path class="cls-3" d="M609.08,90.46c-3.07-2.85,80.42,31.53,87,33.66,10.18,3.28,35.94,4.47,50.91-3.51,11.24-6,23.16-22.36,24.76-25.56s4.19-3.59-3.39,1.2-11.58,6.79-19.57,9.19a88.45,88.45,0,0,1-30.35,4c-10.22-.38-15.23-2-28.45-5.59-24.19-6.66-43.82-10.78-58.2-14.38C613.78,85,600.89,83.62,609.08,90.46Z"/><path class="cls-5" d="M593.71,85.27c-101.23-8.39-130,35.34-130,35.34s-18-39.53,22.17-43.13S593.71,85.27,593.71,85.27Z"/></g><path class="cls-6" d="M2.65,140.25q.78-13.26.77-19.56L7.22,117q.77-.77,11.89-12.8l21.35-23.1q3.74-4.18,8.68-10L44.06,71,39,71H30.05q-10.17,0-21.48.71.59-7,.58-15.06c0-1,0-2.42-.13-4.18q18.27.12,38.8.13,21.24,0,36.61-.13Q84,59.17,83.85,63.1l-.26,8.62-3.66,3.54q-.9.9-1.8,1.86L37.86,121.2l8.81.06q3.15,0,9.14-.06l17.75-.39q2-.06,7-.32-.7,11.46-1,19.76-20.53-.13-37.26-.13H27.68l-16.6.06Z"/><path class="cls-6" d="M91.32,140.25q.25-7.16.45-19.31c1.75-1.54,3.28-2.94,4.56-4.18l25.93-25.09q-15.89.12-27.15,1,.19-3,.39-8.88l.13-5.92V74.55q7.71.14,29.27.13,17.19,0,26.71-.13-.33,2.83-1,20.46-2.38,2.07-4.12,3.73l-25.61,24.07q6.24.19,17.89.19c3,0,6.54-.08,10.62-.26q-.58,4.77-1.29,17.51-8.3-.13-28.31-.13Q100.26,140.12,91.32,140.25Z"/><path class="cls-6" d="M216.4,50.74a70.88,70.88,0,0,1,19.82,2.77,44.55,44.55,0,0,1,16.66,8.85,39.48,39.48,0,0,1,10.68,14,44.22,44.22,0,0,1,3.54,18.21,49.72,49.72,0,0,1-3.89,19.85A41.8,41.8,0,0,1,252,129.76a46,46,0,0,1-17.5,9.23,77.69,77.69,0,0,1-42,.07,45,45,0,0,1-17.34-9.27,36.8,36.8,0,0,1-10.45-14.25,47.28,47.28,0,0,1-3.09-17.44q0-14.09,6.53-24.74t19.37-16.63A67.59,67.59,0,0,1,216.4,50.74Zm-1.16,19.37a25.21,25.21,0,0,0-13.38,3.64,24.06,24.06,0,0,0-9.2,10.1,30.62,30.62,0,0,0-3.22,13.86,26.71,26.71,0,0,0,2.93,12.49,20.62,20.62,0,0,0,8.91,8.84A26.51,26.51,0,0,0,214,122.23a25,25,0,0,0,13.1-3.57,23.2,23.2,0,0,0,9.07-10,30.77,30.77,0,0,0,3.12-13.54,28,28,0,0,0-2.9-12.71,21,21,0,0,0-8.49-9A24.78,24.78,0,0,0,215.24,70.11Z"/><path class="cls-6" d="M276,140.25q1.84-14.61,2.84-32.27T280,74.55q7.72.14,13.34.13,6.5,0,12.5-.13l-.65,8.75a50,50,0,0,1,3.67-3.76,23.21,23.21,0,0,1,3.83-2.7,25.3,25.3,0,0,1,4.86-2.16,36.09,36.09,0,0,1,5.63-1.32,41.15,41.15,0,0,1,6.4-.48,40.53,40.53,0,0,1,9,1A23.77,23.77,0,0,1,346,76.71a17.42,17.42,0,0,1,4.95,4.56,15.08,15.08,0,0,1,2.64,5.89,32.35,32.35,0,0,1,.64,6.5q0,2.45-.52,10.55l-1.11,23.3q-.31,6.88-.32,12.74-6.5-.13-12.15-.13-7.65,0-13.95.13.58-5.87,1.23-17.41t.65-16.25q0-7.26-2.8-10.13a9.46,9.46,0,0,0-7.06-2.86A11.67,11.67,0,0,0,311.14,96a15.47,15.47,0,0,0-5.12,7.11q-1.8,4.66-2.54,15.35t-1,21.75q-6.44-.13-12.54-.13Q283.51,140.12,276,140.25Z"/><path class="cls-6" d="M371.5,140.24s-.05,0,0-.05l5.31-9.21,33.28-62.67,3.55-7q1.53-3.09,4.3-8.86l0,0q11.31.12,16.51.13,9.06,0,16.77-.13l0,0,9.38,26.81,19.1,51.6,3.71,9.34s0,.05,0,.05q-11.08-.12-13.47-.12-5.4,0-15.87.12a0,0,0,0,1,0,0q-2.83-10.6-8.14-24.91s0,0,0,0H413.49l0,0q-5.59,11.31-11.55,24.92a.05.05,0,0,1,0,0q-12-.13-14.66-.13Q382.34,140.12,371.5,140.24Zm49.81-43.68h19.87s0,0,0-.06q-7.29-22.2-8.11-24.84a0,0,0,0,0-.07,0q-4.21,9.38-7.16,15.38l-4.6,9.45A0,0,0,0,0,421.31,96.56Z"/><path class="cls-6" d="M506.69,140.22Q492.49,95,485,74.6s0,0,0,0q6.28.14,12.63.13,6,0,11.37-.13a0,0,0,0,1,0,0l9.14,33.69,1.51,6.49s.07,0,.08,0l4.19-13.12,9.24-27.06s0,0,0,0q6.22.14,12.71.13c4.57,0,8.6,0,12.06-.13,0,0,0,0,0,0l8.9,36,.84,4.31,1-3.21q.39-1.23,1.93-5.67l10.92-31.43s0,0,0,0q6.28.14,11.67.13,4.6,0,12.15-.13a0,0,0,0,1,0,.06l-23.64,55.47-4.1,10.14s0,0,0,0c-4.45-.08-8.21-.12-11.3-.12q-5.07,0-13.16.12s0,0,0,0l-4.55-18.56q-1.28-5.31-4.47-20.19a0,0,0,0,0-.07,0q-9.49,27.47-13.86,38.77s0,0,0,0c-4.5-.08-8.13-.12-10.91-.12q-4.83,0-12.65.12A0,0,0,0,1,506.69,140.22Z"/><path class="cls-6" d="M615.16,93.25a0,0,0,0,1,0,0c.81-4.2,1.32-7.11,1.53-8.71s.55-4.11,1-7.53a0,0,0,0,1,0,0q18.51-4.05,31.82-4.05a53.47,53.47,0,0,1,13.9,1.7,20.38,20.38,0,0,1,9.85,5.5q3.54,3.81,3.54,10.88,0,3.6-1,16.21t-1.48,33s0,0,0,0q-6.29-.12-12.51-.12-6,0-12.83.12s0,0,0,0q.87-7.08,1.93-29.1s0,0,0,0c-1.6.76-2.85,1.31-3.76,1.65s-2.54.86-4.85,1.54-4.12,1.27-5.42,1.74a12.81,12.81,0,0,0-3.41,1.8,7.16,7.16,0,0,0-2,2.25,5.4,5.4,0,0,0-.61,2.58,4.82,4.82,0,0,0,1.74,3.73q1.74,1.55,5.53,1.54a20.18,20.18,0,0,0,2.9-.22,27,27,0,0,0,4.16-1.1s.07,0,.06,0q-1.86,5-4.41,14.38a0,0,0,0,1,0,0,65.14,65.14,0,0,1-10.46.9,34.61,34.61,0,0,1-13.29-2.22,16.55,16.55,0,0,1-8.17-7.18,19.62,19.62,0,0,1-2.87-9.9A17,17,0,0,1,607,116.7a19.76,19.76,0,0,1,3.31-5.67,22.88,22.88,0,0,1,5.27-4.73,37.08,37.08,0,0,1,8.27-3.7,109.46,109.46,0,0,1,13.28-3.28q3.35-.64,6.14-1.38a26,26,0,0,0,4-1.29,6.55,6.55,0,0,0,1.93-1.28,4.82,4.82,0,0,0,1.06-1.55,4.59,4.59,0,0,0,.32-1.7,4.23,4.23,0,0,0-2.06-3.77,11.25,11.25,0,0,0-6-1.32Q631.39,87,615.16,93.25Z"/><path class="cls-6" d="M706.58,140.24a0,0,0,0,1,0,0l-6.82-21.08L684.35,74.6s0,0,0,0q7.3.14,13.59.13,6.56,0,12.33-.13s0,0,0,0q1.1,4.44,4.31,15.51t7.05,26.28a0,0,0,0,0,.08,0l1.63-5.21h0c.25-.64,1.26-3.39,3-8.23l10.21-28.35s0,0,0,0q6.93.14,13.09.13,6.33,0,13.18-.13a0,0,0,0,1,0,.06l-8.84,19-16.53,38-3.52,8.6s0,0,0,0q-7.57-.12-13.36-.12Q714.42,140.12,706.58,140.24Z"/></g></g></g></svg>