<svg xmlns="http://www.w3.org/2000/svg" xmlns:xlink="http://www.w3.org/1999/xlink" viewBox="0 0 951.01 590.26"><defs><style>.cls-1{fill:url(#linear-gradient);}.cls-2{fill:none;stroke-linecap:round;stroke-width:16px;}.cls-2,.cls-3{stroke:#231f20;stroke-miterlimit:10;}.cls-3{fill:#fff;stroke-width:9px;}</style><linearGradient id="linear-gradient" x1="4.36" y1="293.46" x2="947.58" y2="293.46" gradientUnits="userSpaceOnUse"><stop offset="0" stop-color="#99d6d4"/><stop offset="0.29" stop-color="#6977b9"/><stop offset="0.41" stop-color="#6fa8d5"/><stop offset="0.53" stop-color="#8dcdd1"/><stop offset="0.68" stop-color="#6988bd"/><stop offset="1" stop-color="#8bc9d0"/></linearGradient></defs><g id="Layer_2" data-name="Layer 2"><g id="ZZ7"><path class="cls-1" d="M5.58,1.26c5.3,109.16-1.26,386.12-1.22,409.25,0,0,80.59-6.78,152.57,77.66s58.58,67.67,116.16,90.39,147.69-10.07,188.15-57.33c43.9-51.28,65.53-72.32,87.87-86.79s53.12-27,107.73-18.07,100.28,53.72,128.57,82.13,52,60.62,76,70.25c71.48,28.67,86.21,13.51,86.21,13.51l-1-408s-76.78,6.09-145.29-72.95-96.19-85.07-138.67-95C606.18-7,573.77,6.56,539.51,29.29,443.88,92.75,434,164.89,337,171.86c-47,3.37-86.38-6.54-133-49.93C159.4,80.53,129.29,43.07,91.07,19.3S5.58,1.26,5.58,1.26Z"/><g id="WAVE_LINESS" data-name="WAVE LINESS"><path class="cls-2" d="M8,8C163.83,8,163.83,178,319.67,178S475.5,8,631.34,8,787.17,178,943,178"/><path class="cls-2" d="M8,208.56c155.83,0,155.83,170,311.67,170s155.83-170,311.67-170,155.83,170,311.67,170"/><path class="cls-2" d="M8,308.85c155.83,0,155.83,170,311.67,170s155.83-170,311.67-170,155.83,170,311.67,170"/><path class="cls-2" d="M8,409.13c155.83,0,155.83,170,311.67,170s155.83-170,311.67-170,155.83,170,311.67,170"/><path class="cls-2" d="M8,108.28c155.83,0,155.83,170,311.67,170s155.83-170,311.67-170,155.83,170,311.67,170"/><line class="cls-2" x1="8" y1="10.35" x2="8" y2="407.76"/><line class="cls-2" x1="943.01" y1="582.26" x2="943.01" y2="183.47"/></g><path class="cls-3" d="M223.47,258.55H172.24l51.23,56v33.68h-94.8V313.74H180l-51.31-56V224.1h94.8Z"/><path class="cls-3" d="M18.38,224.1h89.7a2.59,2.59,0,0,1,2.55,2.64v30a2.7,2.7,0,0,1-.71,1.83l-46.5,50.72a2.66,2.66,0,0,0,1.84,4.48h42.82a2.6,2.6,0,0,1,2.55,2.65v29.24a2.59,2.59,0,0,1-2.55,2.64H18.38a2.59,2.59,0,0,1-2.55-2.64v-30a2.69,2.69,0,0,1,.7-1.82L63,263a2.66,2.66,0,0,0-1.85-4.47H18.38a2.6,2.6,0,0,1-2.55-2.65V226.74A2.59,2.59,0,0,1,18.38,224.1Z"/><path class="cls-3" d="M292.24,226.07q24.84,0,42.25,18.16T352,288.11q0,25.84-17.46,44t-42.25,18.16h-9.06q-24.82,0-42.25-18.16t-17.46-44q0-25.71,17.46-43.88t42.25-18.16Zm0,89.64a24.84,24.84,0,0,0,16.37-5.81,29,29,0,0,0,10-25.47,27,27,0,0,0-7.45-15.86,25.12,25.12,0,0,0-18.94-8.05h-9.06a25.15,25.15,0,0,0-18.94,8.05,27,27,0,0,0-7.45,15.86,29,29,0,0,0,10,25.47,24.79,24.79,0,0,0,16.36,5.81Z"/><path class="cls-3" d="M396.82,288.67l44.23-64.53h33V348.32H440.88V283.7l-44.06,64.62H363.63V224.14h33.19Z"/><path class="cls-3" d="M565.49,224.14l45.62,124.18H573l-4.53-12.26h-46L518,348.32H478.19l47.27-124.18Zm-8.73,79.53-11.29-31-11.28,31Z"/><path class="cls-3" d="M695.75,224.1h37.31L704,348.27H667.25l-6-46.27-10.87,46.27H617.76L590.41,224.1h35.66l10,45.76,10.13-45.76h29.32l10,45.76Z"/><path class="cls-3" d="M798.22,224.14l45.63,124.18H805.72l-4.53-12.26h-46l-4.45,12.26H710.92L758.2,224.14Zm-8.73,79.53-11.28-31-11.28,31Z"/><path class="cls-3" d="M902.41,224.14h39.78L894.91,348.32h-40L809.26,224.14h38.13l27.51,75.58Z"/></g></g></svg>